<svg xmlns="http://www.w3.org/2000/svg" viewBox="0 0 64 64">
  <rect width="64" height="64" rx="14" fill="#fff7e8"/>
  <g fill="#D09316">
    <path d="M32 6 C25 15 25 24 32 31 C39 24 39 15 32 6 Z"/>
    <path d="M32 58 C25 49 25 40 32 33 C39 40 39 49 32 58 Z"/>
    <path d="M6 32 C15 25 24 25 31 32 C24 39 15 39 6 32 Z"/>
    <path d="M58 32 C49 25 40 25 33 32 C40 39 49 39 58 32 Z"/>
    <path d="M13 13 C23 14 30 21 31 31 C21 30 14 23 13 13 Z"/>
    <path d="M51 13 C50 23 43 30 33 31 C34 21 41 14 51 13 Z"/>
  </g>
</svg>